<svg width="10" height="26" viewBox="0 0 10 26" fill="none" xmlns="http://www.w3.org/2000/svg">
<path d="M8.59375 21.2188C8.59375 19.0703 6.83594 17.3125 4.6875 17.3125C2.49023 17.3125 0.78125 19.0703 0.78125 21.2188C0.78125 23.416 2.49023 25.125 4.6875 25.125C6.83594 25.125 8.59375 23.416 8.59375 21.2188ZM1.2207 1.39453L1.85547 14.6758C1.9043 15.2617 2.44141 15.75 3.02734 15.75H6.29883C6.88477 15.75 7.42188 15.2617 7.4707 14.6758L8.10547 1.39453C8.1543 0.710938 7.61719 0.125 6.93359 0.125H2.39258C1.70898 0.125 1.17188 0.710938 1.2207 1.39453Z" fill="white"/>
</svg>
