<svg width="17" height="16" viewBox="0 0 17 16" fill="none" xmlns="http://www.w3.org/2000/svg">
<path d="M5.84375 0H2.125C0.95293 0 0 1.025 0 2.28571V6.85714C0 8.11786 0.95293 9.14286 2.125 9.14286H4.25V10C4.25 11.1036 3.4166 12 2.39062 12H1.85938C1.12559 12 0.53125 12.6393 0.53125 13.4286V14.5714C0.53125 15.3607 1.12559 16 1.85938 16H2.39062C5.46523 16 7.96875 13.3071 7.96875 10V2.28571C7.96875 1.025 7.01582 0 5.84375 0ZM6.90625 10C6.90625 12.6821 4.88418 14.8571 2.39062 14.8571H1.85938C1.71328 14.8571 1.59375 14.7286 1.59375 14.5714V13.4286C1.59375 13.2714 1.71328 13.1429 1.85938 13.1429H2.39062C4.0043 13.1429 5.3125 11.7357 5.3125 10V8H2.125C1.5373 8 1.0625 7.48929 1.0625 6.85714V2.28571C1.0625 1.65357 1.5373 1.14286 2.125 1.14286H5.84375C6.43145 1.14286 6.90625 1.65357 6.90625 2.28571V10ZM14.875 0H11.1562C9.98418 0 9.03125 1.025 9.03125 2.28571V6.85714C9.03125 8.11786 9.98418 9.14286 11.1562 9.14286H13.2812V10C13.2812 11.1036 12.4479 12 11.4219 12H10.8906C10.1568 12 9.5625 12.6393 9.5625 13.4286V14.5714C9.5625 15.3607 10.1568 16 10.8906 16H11.4219C14.4965 16 17 13.3071 17 10V2.28571C17 1.025 16.0471 0 14.875 0ZM15.9375 10C15.9375 12.6821 13.9154 14.8571 11.4219 14.8571H10.8906C10.7445 14.8571 10.625 14.7286 10.625 14.5714V13.4286C10.625 13.2714 10.7445 13.1429 10.8906 13.1429H11.4219C13.0355 13.1429 14.3438 11.7357 14.3438 10V8H11.1562C10.5686 8 10.0938 7.48929 10.0938 6.85714V2.28571C10.0938 1.65357 10.5686 1.14286 11.1562 1.14286H14.875C15.4627 1.14286 15.9375 1.65357 15.9375 2.28571V10Z" fill="#4D4D4D"/>
</svg>
