<svg width="12" height="16" viewBox="0 0 12 16" fill="none" xmlns="http://www.w3.org/2000/svg">
<path d="M6.5625 4.85938V0.875H0.703125C0.292969 0.875 0 1.19727 0 1.57812V15.1719C0 15.582 0.292969 15.875 0.703125 15.875H10.5469C10.9277 15.875 11.25 15.582 11.25 15.1719V5.5625H7.26562C6.85547 5.5625 6.5625 5.26953 6.5625 4.85938ZM8.4375 11.7734C8.4375 11.9785 8.26172 12.125 8.08594 12.125H3.16406C2.95898 12.125 2.8125 11.9785 2.8125 11.7734V11.5391C2.8125 11.3633 2.95898 11.1875 3.16406 11.1875H8.08594C8.26172 11.1875 8.4375 11.3633 8.4375 11.5391V11.7734ZM8.4375 9.89844C8.4375 10.1035 8.26172 10.25 8.08594 10.25H3.16406C2.95898 10.25 2.8125 10.1035 2.8125 9.89844V9.66406C2.8125 9.48828 2.95898 9.3125 3.16406 9.3125H8.08594C8.26172 9.3125 8.4375 9.48828 8.4375 9.66406V9.89844ZM8.4375 7.78906V8.02344C8.4375 8.22852 8.26172 8.375 8.08594 8.375H3.16406C2.95898 8.375 2.8125 8.22852 2.8125 8.02344V7.78906C2.8125 7.61328 2.95898 7.4375 3.16406 7.4375H8.08594C8.26172 7.4375 8.4375 7.61328 8.4375 7.78906ZM11.25 4.44922C11.25 4.27344 11.1621 4.09766 11.0449 3.95117L8.17383 1.08008C8.02734 0.962891 7.85156 0.875 7.67578 0.875H7.5V4.625H11.25V4.44922Z" fill="#225BA4" fill-opacity="0.9"/>
</svg>
