<svg width="22" height="22" viewBox="0 0 22 22" fill="none" xmlns="http://www.w3.org/2000/svg">
<path d="M21.2564 4.33324L14.5905 10.9998L21.2564 17.6661C22.2479 18.658 22.2479 20.2648 21.2564 21.2567C20.761 21.7521 20.1114 22 19.4622 22C18.812 22 18.1624 21.7525 17.6674 21.2567L11 14.5896L4.33321 21.2566C3.83787 21.752 3.18829 21.9999 2.53852 21.9999C1.88894 21.9999 1.2398 21.7524 0.744015 21.2566C-0.2475 20.2652 -0.2475 18.6584 0.744015 17.6661L7.4097 10.9998L0.743636 4.33324C-0.247879 3.34172 -0.247879 1.73459 0.743636 0.743073C1.73496 -0.247691 3.34113 -0.247691 4.33283 0.743073L11 7.40968L17.6666 0.743073C18.6585 -0.247691 20.2648 -0.247691 21.256 0.743073C22.2479 1.73459 22.2479 3.34172 21.2564 4.33324Z" fill="white"/>
</svg>
