<svg width="36" height="36" viewBox="0 0 36 36" fill="none" xmlns="http://www.w3.org/2000/svg">
<circle cx="18" cy="18" r="18" fill="#F3C945"/>
<path d="M16.7188 23C16.8828 23 17 22.8828 17 22.7187L17 21.7812C17 21.6406 16.8828 21.5 16.7187 21.5L14.75 21.5L14.75 19.5312C14.75 19.3906 14.6328 19.25 14.4687 19.25L13.5312 19.25C13.3906 19.25 13.25 19.3906 13.25 19.5312L13.25 22.4375C13.25 22.7656 13.5078 23 13.8125 23L16.7188 23ZM13.5312 16.25L14.4687 16.25C14.6328 16.25 14.75 16.1328 14.75 15.9687L14.75 14L16.7187 14C16.8828 14 17 13.8828 17 13.7187L17 12.7812C17 12.6406 16.8828 12.5 16.7187 12.5L13.8125 12.5C13.5078 12.5 13.25 12.7578 13.25 13.0625L13.25 15.9687C13.25 16.1328 13.3906 16.25 13.5312 16.25ZM20 12.7812L20 13.7187C20 13.8828 20.1406 14 20.2812 14L22.25 14L22.25 15.9687C22.25 16.1328 22.3906 16.25 22.5312 16.25L23.4687 16.25C23.6328 16.25 23.75 16.1328 23.75 15.9687L23.75 13.0625C23.75 12.7578 23.5156 12.5 23.1875 12.5L20.2812 12.5C20.1406 12.5 20 12.6406 20 12.7812ZM23.4687 19.25L22.5312 19.25C22.3906 19.25 22.25 19.3906 22.25 19.5312L22.25 21.5L20.2812 21.5C20.1406 21.5 20 21.6406 20 21.7812L20 22.7187C20 22.8828 20.1406 23 20.2812 23L23.1875 23C23.5156 23 23.75 22.7656 23.75 22.4375L23.75 19.5312C23.75 19.3906 23.6328 19.25 23.4687 19.25Z" fill="#225BA4" fill-opacity="0.9"/>
</svg>
