<svg width="39" height="39" viewBox="0 0 39 39" fill="none" xmlns="http://www.w3.org/2000/svg">
<path d="M33.2544 0H5.68254C5.02615 0 4.49414 0.532013 4.49414 1.1884V37.8116C4.49414 38.468 5.02615 39 5.68254 39H33.2544C33.9108 39 34.4428 38.468 34.4428 37.8116V1.1884C34.4428 0.532013 33.9108 0 33.2544 0ZM21.2433 10.3031C21.7137 9.84492 22.4659 9.85474 22.9239 10.3249L23.8757 11.3014L27.1904 8.03048C27.6575 7.56958 28.4103 7.57464 28.8712 8.04179C29.3321 8.50893 29.3271 9.26173 28.8599 9.72263L24.6937 13.8332C24.4714 14.0528 24.1712 14.1757 23.8591 14.1757C23.8552 14.1757 23.8513 14.1757 23.8475 14.1754C23.5309 14.1724 23.2289 14.0433 23.0078 13.8166L21.2216 11.9837C20.7637 11.5136 20.7735 10.7611 21.2433 10.3031ZM21.2433 17.8647C21.7137 17.4065 22.4659 17.4166 22.9239 17.8864L23.8757 18.863L27.1904 15.592C27.6575 15.1311 28.4103 15.1362 28.8712 15.6036C29.3321 16.0708 29.3271 16.8233 28.8599 17.2842L24.6937 21.3948C24.4714 21.6144 24.1712 21.7373 23.8591 21.7373C23.8552 21.7373 23.8513 21.7373 23.8475 21.7373C23.5309 21.734 23.2289 21.6048 23.0078 21.3784L21.2216 19.5452C20.7637 19.0754 20.7735 18.3229 21.2433 17.8647ZM15.3287 31.312H10.9116C10.2552 31.312 9.72322 30.7797 9.72322 30.1236C9.72322 29.4672 10.2552 28.9349 10.9116 28.9349H15.3287C15.9848 28.9349 16.5171 29.4672 16.5171 30.1236C16.5171 30.7797 15.9848 31.312 15.3287 31.312ZM17.9429 27.4338H10.9116C10.2552 27.4338 9.72322 26.9018 9.72322 26.2454C9.72322 25.589 10.2552 25.057 10.9116 25.057H17.9429C18.5993 25.057 19.1316 25.589 19.1316 26.2454C19.1316 26.9018 18.5993 27.4338 17.9429 27.4338ZM9.72322 22.5618C9.72322 21.9054 10.2552 21.3734 10.9116 21.3734H15.3287C15.9848 21.3734 16.5171 21.9054 16.5171 22.5618C16.5171 23.2181 15.9848 23.7502 15.3287 23.7502H10.9116C10.2552 23.7502 9.72322 23.2181 9.72322 22.5618ZM17.9429 19.8722H10.9116C10.2552 19.8722 9.72322 19.3402 9.72322 18.6838C9.72322 18.0274 10.2552 17.4954 10.9116 17.4954H17.9429C18.5993 17.4954 19.1316 18.0274 19.1316 18.6838C19.1316 19.3402 18.5993 19.8722 17.9429 19.8722ZM9.72322 15.0002C9.72322 14.3438 10.2552 13.8115 10.9116 13.8115H15.3287C15.9848 13.8115 16.5171 14.3438 16.5171 15.0002C16.5171 15.6563 15.9848 16.1886 15.3287 16.1886H10.9116C10.2552 16.1886 9.72322 15.6563 9.72322 15.0002ZM17.9429 12.3107H10.9116C10.2552 12.3107 9.72322 11.7784 9.72322 11.122C9.72322 10.4659 10.2552 9.93359 10.9116 9.93359H17.9429C18.5993 9.93359 19.1316 10.4659 19.1316 11.122C19.1316 11.7784 18.5993 12.3107 17.9429 12.3107ZM28.8599 24.846L24.6937 28.9566C24.4714 29.1759 24.1715 29.2988 23.8591 29.2988C23.8552 29.2988 23.8513 29.2988 23.8475 29.2988C23.5312 29.2958 23.2289 29.1667 23.0081 28.94L21.2216 27.1071C20.7637 26.6369 20.7735 25.8845 21.2433 25.4265C21.7134 24.9683 22.4659 24.9781 22.9239 25.4482L23.8757 26.4245L27.1904 23.1539C27.6578 22.693 28.41 22.698 28.8712 23.1652C29.3321 23.6323 29.3271 24.3848 28.8599 24.846Z" fill="#4D4D4D"/>
</svg>
