<svg width="39" height="35" viewBox="0 0 39 35" fill="none" xmlns="http://www.w3.org/2000/svg">
<path d="M28.003 7.64325C27.3195 7.64325 26.6856 7.28639 26.3311 6.70176C25.9767 6.11763 25.9529 5.39026 26.2689 4.78437C26.5139 4.31464 26.6385 3.80644 26.6385 3.27445C26.6385 1.46892 25.1691 -1.10018e-06 23.363 -1.02123e-06C21.557 -9.42285e-07 20.0876 1.46942 20.0876 3.27445C20.0876 3.80644 20.2122 4.31464 20.4567 4.78437C20.7732 5.39026 20.7494 6.11763 20.3949 6.70176C20.0405 7.28639 19.4066 7.64325 18.7225 7.64325L7.72557 7.64325L7.72557 12.2029C7.54633 12.1892 7.36709 12.1826 7.18683 12.1826C3.2238 12.1826 -8.56505e-07 15.4054 -6.83328e-07 19.3673C-5.10173e-07 23.3286 3.2238 26.5519 7.18683 26.5519C7.36709 26.5519 7.54633 26.5448 7.72557 26.5317L7.72557 33.0446C7.72557 34.1248 8.60101 35 9.68101 35L18.7225 35C19.4066 35 20.0405 34.6431 20.3949 34.0585C20.7494 33.4744 20.7732 32.747 20.4567 32.1406C20.2122 31.6709 20.0876 31.1632 20.0876 30.6312C20.0876 28.8257 21.557 27.3568 23.363 27.3568C25.1691 27.3568 26.6385 28.8257 26.6385 30.6312C26.6385 31.1632 26.5139 31.6709 26.2689 32.1406C25.9529 32.747 25.9762 33.4739 26.3311 34.0585C26.6856 34.6431 27.3195 35 28.003 35L37.0446 35C38.1246 35 39 34.1248 39 33.0446L39 24.0059C39 23.3225 38.643 22.6888 38.0587 22.334C37.4739 21.9797 36.7463 21.9564 36.1403 22.2722C35.6704 22.5172 35.162 22.6412 34.6299 22.6412C32.8238 22.6412 31.3544 21.1723 31.3544 19.3668C31.3544 17.5618 32.8243 16.0928 34.6299 16.0928C35.162 16.0928 35.6704 16.2168 36.1403 16.4618C36.7463 16.7782 37.4739 16.7544 38.0587 16.4001C38.643 16.0458 39 15.4115 39 14.7282L39 7.64325L28.003 7.64325Z" fill="#4D4D4D"/>
</svg>
