<svg width="45" height="45" viewBox="0 0 45 45" fill="none" xmlns="http://www.w3.org/2000/svg">
<g clip-path="url(#clip0)">
<path d="M28.2853 39.9494C26.4876 40.7473 24.5259 41.1668 22.4999 41.1668C20.474 41.1668 18.5126 40.7473 16.7149 39.9494C16.1138 40.7699 15.3444 41.4209 14.4658 41.8669C16.9069 43.1814 19.6497 43.8798 22.4999 43.8798C25.3506 43.8798 28.0934 43.1814 30.5344 41.8669C29.6555 41.4209 28.8861 40.7703 28.2853 39.9494Z" fill="#4D4D4D"/>
<path d="M32.3345 16.5729C32.4189 16.6535 32.5027 16.7353 32.5858 16.8183C33.7503 17.9829 34.688 19.3136 35.378 20.7566C36.0194 20.5836 36.6871 20.4919 37.3696 20.4919C37.6659 20.4919 37.9588 20.5108 38.2486 20.5441C37.4057 18.4563 36.144 16.5399 34.5039 14.8998C33.9687 14.3646 33.4032 13.8702 32.8124 13.4167C32.9264 14.4782 32.7667 15.5597 32.3345 16.5729Z" fill="#4D4D4D"/>
<path d="M9.62189 20.7566C10.3123 19.3136 11.2499 17.9829 12.4145 16.8183C12.4976 16.7353 12.5813 16.6535 12.6658 16.5729C12.2332 15.5597 12.0736 14.4782 12.1879 13.4167C11.597 13.8702 11.0316 14.3646 10.4963 14.8998C8.85663 16.5399 7.59457 18.4563 6.75171 20.5441C7.04147 20.5108 7.33467 20.4919 7.63062 20.4919C8.31314 20.4919 8.98091 20.5836 9.62189 20.7566Z" fill="#4D4D4D"/>
<path d="M15.3874 12.2181C14.707 13.3659 14.6967 14.7457 15.3596 15.9092C16.0281 17.0827 17.2324 17.7838 18.581 17.7838H26.4191C27.768 17.7838 28.9721 17.0827 29.6408 15.9092C30.3038 14.7457 30.2932 13.3659 29.613 12.2181C28.809 10.862 27.6393 9.78535 26.2742 9.08291C26.9821 8.21704 27.367 7.14278 27.367 6.00947C27.367 4.70931 26.861 3.48707 25.9415 2.568C25.0225 1.64858 23.8002 1.14252 22.5001 1.14252C21.2002 1.14252 19.978 1.64858 19.0586 2.568C18.1395 3.48707 17.6331 4.70931 17.6331 6.00947C17.6331 7.14278 18.0183 8.21704 18.7262 9.08291C17.3612 9.78535 16.1911 10.862 15.3874 12.2181Z" fill="#4D4D4D"/>
<path d="M14.7712 37.9691C15.4342 36.8056 15.4239 35.4261 14.7434 34.2784C13.9397 32.9223 12.7696 31.8456 11.4046 31.1432C12.1125 30.2773 12.4977 29.2031 12.4977 28.0697C12.4977 26.7696 11.9913 25.5473 11.0719 24.6279C9.17435 22.7307 6.08684 22.7307 4.18929 24.6279C3.26987 25.5473 2.76347 26.7696 2.76347 28.0694C2.76347 29.2031 3.14868 30.2773 3.85661 31.1432C2.49156 31.8453 1.32185 32.9223 0.51779 34.2784C-0.162677 35.4258 -0.172977 36.8056 0.489981 37.9691C1.15843 39.143 2.36281 39.8437 3.71139 39.8437H11.5495C12.8984 39.8437 14.1028 39.143 14.7712 37.9691Z" fill="#4D4D4D"/>
<path d="M41.1438 31.1431C41.8514 30.2773 42.2366 29.203 42.2366 28.0697C42.2366 26.7695 41.7302 25.5473 40.8111 24.6282C38.9136 22.7307 35.8257 22.7307 33.9282 24.6282C33.0088 25.5473 32.5027 26.7695 32.5027 28.0697C32.5027 29.203 32.8876 30.2773 33.5955 31.1431C32.2304 31.8456 31.0607 32.9222 30.2567 34.2784C29.5766 35.4261 29.5659 36.8059 30.2289 37.9694C30.8977 39.1429 32.102 39.8436 33.4503 39.8436H41.2884C42.6369 39.8436 43.8413 39.1429 44.5101 37.9694C45.1731 36.8059 45.1624 35.4261 44.4823 34.2784C43.6786 32.9222 42.5089 31.8456 41.1438 31.1431Z" fill="#4D4D4D"/>
</g>
<defs>
<clipPath id="clip0">
</clipPath>
</defs>
</svg>
