<svg width="39" height="39" viewBox="0 0 39 39" fill="none" xmlns="http://www.w3.org/2000/svg">
<g clip-path="url(#clip0)">
<path d="M24.0721 22.8798V24.6032C24.0721 25.2522 23.5463 25.7779 22.8976 25.7779H16.1023C15.4536 25.7779 14.9279 25.2522 14.9279 24.6032V22.8798H2.2738V37.2974C2.2738 37.9461 2.79987 38.4721 3.44852 38.4721H35.5514C36.2 38.4721 36.7261 37.9461 36.7261 37.2974V22.8798H24.0721Z" fill="#4D4D4D"/>
<path d="M14.9279 20.5304V18.8067C14.9279 18.1581 15.4537 17.632 16.1023 17.632H22.8977C23.5463 17.632 24.0721 18.1581 24.0721 18.8067V20.5304H39V7.71716C39 7.06851 38.4739 6.54245 37.8253 6.54245H27.651V4.80508C27.651 2.40745 25.7006 0.457031 23.3029 0.457031H15.6971C13.2997 0.457031 11.349 2.40745 11.349 4.80508V6.54245H1.17471C0.526062 6.54245 0 7.06851 0 7.71716V20.5304H14.9279ZM13.6984 4.80508C13.6984 3.70296 14.5949 2.80646 15.6971 2.80646H23.3029C24.4051 2.80646 25.3016 3.70296 25.3016 4.80508V6.54245H13.6984V4.80508Z" fill="#4D4D4D"/>
<path d="M17.277 19.9814H21.7229V23.4288H17.277V19.9814Z" fill="#4D4D4D"/>
</g>
<defs>
<clipPath id="clip0">
</clipPath>
</defs>
</svg>
