<svg width="32" height="40" viewBox="0 0 32 40" fill="none" xmlns="http://www.w3.org/2000/svg">
<path d="M30.6307 40C31.3865 40 32 39.3865 32 38.6308V1.36919C32 0.61347 31.3865 0 30.6307 0H1.36927C0.613504 0 0 0.61347 0 1.36919V38.6308C0 39.3865 0.613504 40 1.36927 40H30.6307ZM10.1095 14.092C10.7141 13.0696 11.5677 12.2427 12.5724 11.6648C12.1011 10.9802 11.8522 10.1711 11.8522 9.32652C11.8522 8.21516 12.2879 7.17493 13.0703 6.39253C14.6885 4.77439 17.3204 4.77439 18.9386 6.39253C19.721 7.17493 20.1567 8.21516 20.1567 9.32652C20.1567 10.1711 19.9078 10.9802 19.4365 11.6648C20.4323 12.2427 21.2948 13.0785 21.8994 14.092C22.4951 15.0967 22.504 16.297 21.9261 17.3105C21.3393 18.333 20.2901 18.9464 19.1164 18.9464H12.8925C11.7188 18.9464 10.6696 18.333 10.0828 17.3105C9.50486 16.297 9.51375 15.0878 10.1095 14.092ZM8.66908 20.6357H23.3309C24.0867 20.6357 24.7002 21.2492 24.7002 22.0049C24.7002 22.7606 24.0867 23.3741 23.3309 23.3741H8.66908C7.91331 23.3741 7.29981 22.7606 7.29981 22.0049C7.29981 21.2492 7.91331 20.6357 8.66908 20.6357ZM8.66908 25.3123H23.3309C24.0867 25.3123 24.7002 25.9258 24.7002 26.6815C24.7002 27.4372 24.0867 28.0507 23.3309 28.0507H8.66908C7.91331 28.0507 7.29981 27.4372 7.29981 26.6815C7.29981 25.9169 7.91331 25.3123 8.66908 25.3123ZM8.66908 29.9889H19.3921C20.1478 29.9889 20.7613 30.6024 20.7613 31.3581C20.7613 32.1138 20.1478 32.7273 19.3921 32.7273H8.66908C7.91331 32.7273 7.29981 32.1138 7.29981 31.3581C7.29981 30.5935 7.91331 29.9889 8.66908 29.9889Z" fill="#A1BFDA"/>
</svg>
