<svg width="18" height="14" viewBox="0 0 18 14" fill="none" xmlns="http://www.w3.org/2000/svg">
<path d="M17.6484 4.93018C16.8398 5.56299 15.8203 6.33643 12.2344 8.93799C11.5312 9.46533 10.2305 10.6255 9 10.6255C7.73438 10.6255 6.46875 9.46533 5.73047 8.93799C2.14453 6.33643 1.125 5.56299 0.316406 4.93018C0.175781 4.82471 0 4.93018 0 5.10596V12.2778C0 13.2271 0.738281 13.9653 1.6875 13.9653H16.3125C17.2266 13.9653 18 13.2271 18 12.2778V5.10596C18 4.93018 17.7891 4.82471 17.6484 4.93018ZM9 9.46533C9.80859 9.50049 10.9688 8.4458 11.5664 8.02393C16.2422 4.64893 16.5938 4.33252 17.6484 3.48877C17.8594 3.34814 18 3.10205 18 2.8208V2.15283C18 1.23877 17.2266 0.465332 16.3125 0.465332H1.6875C0.738281 0.465332 0 1.23877 0 2.15283V2.8208C0 3.10205 0.105469 3.34814 0.316406 3.48877C1.37109 4.33252 1.72266 4.64893 6.39844 8.02393C6.99609 8.4458 8.15625 9.50049 9 9.46533Z" fill="#F3C945"/>
</svg>
