<svg width="25" height="23" viewBox="0 0 25 23" fill="none" xmlns="http://www.w3.org/2000/svg">
<path d="M22.0644 0H2.36405C1.06382 0 0 1.06382 0 2.36405C0 3.66427 1.06382 4.72809 2.36405 4.72809H22.0644C23.3647 4.72809 24.4285 3.66427 24.4285 2.36405C24.4285 1.06382 23.3647 0 22.0644 0Z" fill="white"/>
<path d="M22.0644 8.66809H2.36405C1.06382 8.66809 0 9.73191 0 11.0321C0 12.3324 1.06382 13.3962 2.36405 13.3962H22.0644C23.3647 13.3962 24.4285 12.3324 24.4285 11.0321C24.4285 9.73191 23.3647 8.66809 22.0644 8.66809Z" fill="white"/>
<path d="M22.0644 17.3364H2.36405C1.06382 17.3364 0 18.4002 0 19.7005C0 21.0007 1.06382 22.0645 2.36405 22.0645H22.0644C23.3647 22.0645 24.4285 21.0007 24.4285 19.7005C24.4285 18.4002 23.3647 17.3364 22.0644 17.3364Z" fill="white"/>
</svg>
