<svg width="19" height="19" viewBox="0 0 19 19" fill="none" xmlns="http://www.w3.org/2000/svg">
<path d="M18.332 1.09424L14.6758 0.250488C14.2891 0.14502 13.8672 0.355957 13.6914 0.742676L12.0039 4.68018C11.8633 5.03174 11.9688 5.41846 12.25 5.66455L14.3945 7.42236C13.1289 10.0942 10.9141 12.3442 8.17188 13.645L6.41406 11.5005C6.16797 11.2192 5.78125 11.1138 5.42969 11.2544L1.49219 12.9419C1.10547 13.1177 0.929688 13.5396 1 13.9263L1.84375 17.5825C1.94922 17.9692 2.26562 18.2153 2.6875 18.2153C11.6875 18.2153 19 10.938 19 1.90283C19 1.51611 18.7188 1.19971 18.332 1.09424Z" fill="#F3C945"/>
</svg>
