<svg width="14" height="19" viewBox="0 0 14 19" fill="none" xmlns="http://www.w3.org/2000/svg">
<path d="M6.04688 17.8638C6.36328 18.356 7.10156 18.356 7.41797 17.8638C12.5508 10.481 13.5 9.70752 13.5 6.96533C13.5 3.23877 10.4766 0.215332 6.75 0.215332C2.98828 0.215332 0 3.23877 0 6.96533C0 9.70752 0.914062 10.481 6.04688 17.8638ZM6.75 9.77783C5.16797 9.77783 3.9375 8.54736 3.9375 6.96533C3.9375 5.41846 5.16797 4.15283 6.75 4.15283C8.29688 4.15283 9.5625 5.41846 9.5625 6.96533C9.5625 8.54736 8.29688 9.77783 6.75 9.77783Z" fill="#F3C945"/>
</svg>
