<svg width="36" height="36" viewBox="0 0 36 36" fill="none" xmlns="http://www.w3.org/2000/svg">
<circle cx="18" cy="18" r="18" fill="#F3C945"/>
<path d="M22.875 23C23.4844 23 24 22.5078 24 21.875V15.125C24 14.5156 23.4844 14 22.875 14H13.125C12.4922 14 12 14.5156 12 15.125V21.875C12 22.5078 12.4922 23 13.125 23H22.875ZM14.625 15.3125C15.3281 15.3125 15.9375 15.9219 15.9375 16.625C15.9375 17.3516 15.3281 17.9375 14.625 17.9375C13.8984 17.9375 13.3125 17.3516 13.3125 16.625C13.3125 15.9219 13.8984 15.3125 14.625 15.3125ZM13.5 21.5V20.375L15.1641 18.7109C15.2812 18.5938 15.4453 18.5938 15.5625 18.7109L16.875 20L20.0391 16.8359C20.1562 16.7188 20.3203 16.7188 20.4375 16.8359L22.5 18.875V21.5H13.5Z" fill="#225BA4" fill-opacity="0.9"/>
</svg>
