<svg width="27" height="19" viewBox="0 0 27 19" fill="none" xmlns="http://www.w3.org/2000/svg">
<path d="M25.7344 3.82471C25.4531 2.69971 24.5625 1.80908 23.4844 1.52783C21.4688 0.965332 13.5 0.965332 13.5 0.965332C13.5 0.965332 5.48438 0.965332 3.46875 1.52783C2.39062 1.80908 1.5 2.69971 1.21875 3.82471C0.65625 5.79346 0.65625 10.0122 0.65625 10.0122C0.65625 10.0122 0.65625 14.1841 1.21875 16.1997C1.5 17.3247 2.39062 18.1685 3.46875 18.4497C5.48438 18.9653 13.5 18.9653 13.5 18.9653C13.5 18.9653 21.4688 18.9653 23.4844 18.4497C24.5625 18.1685 25.4531 17.3247 25.7344 16.1997C26.2969 14.1841 26.2969 10.0122 26.2969 10.0122C26.2969 10.0122 26.2969 5.79346 25.7344 3.82471ZM10.875 13.8091V6.21533L17.5312 10.0122L10.875 13.8091Z" fill="#F3C945"/>
</svg>
